<svg width="200" height="200" xmlns="http://www.w3.org/2000/svg">
 <!-- Created with Method Draw - http://github.com/duopixel/Method-Draw/ -->
 <g>
  <path transform="rotate(-3.30346, 100.25, 62.5)" id="svg_43" d="m48.5,55.5c44.83333,1.83333 77.66667,2.66667 101.5,-3.5c0.66667,7 1.33333,14 2,21l-103.5,-17.5z" stroke-opacity="null" stroke-width="0" stroke="null" fill="#7f3f00"/>
  <rect transform="rotate(40.4338, 81, 159)" id="svg_32" height="15" width="51" y="151.5" x="55.5" stroke-width="0" fill="#7fff00"/>
  <rect transform="rotate(-19.1481, 99, 137)" id="svg_30" height="15" width="51" y="129.5" x="73.5" stroke-width="0" fill="#7fff00"/>
  <ellipse ry="38.5" rx="12" id="svg_28" cy="105" cx="74.5" stroke-width="0" fill="#3f7f00"/>
  <rect id="svg_29" height="78" width="22" y="65.5" x="51.5" stroke-width="0" fill="#3f7f00"/>
  <ellipse transform="rotate(-22.1027, 55.5, 50.5)" ry="20" rx="16" id="svg_27" cy="50.5" cx="55.5" stroke-width="0" fill="#ffaa56"/>
  <rect transform="rotate(73.797, 122, 150)" id="svg_31" height="15" width="51" y="142.5" x="96.5" stroke-width="0" fill="#7fff00"/>
  <rect transform="rotate(-0.537973, 78, 174)" id="svg_33" height="15" width="51" y="166.5" x="52.5" stroke-width="0" fill="#7fff00"/>
  <path id="svg_35" d="m51.5,136.5c0.5,6.16667 1,12.33333 1.5,18.5c28,5 48,-14 55,-30l-56.5,11.5z" fill-opacity="null" stroke-opacity="null" stroke-width="0" stroke="null" fill="#3f7f00"/>
  <ellipse ry="4.5" rx="16" id="svg_36" cy="177" cx="137.5" stroke-opacity="null" stroke-width="0" stroke="null" fill="#3f7f00"/>
  <ellipse transform="rotate(-31.1316, 46.5939, 176.363)" ry="5.87526" rx="15" id="svg_37" cy="176.36333" cx="46.59388" stroke-opacity="null" stroke-width="0" stroke="null" fill="#3f7f00"/>
  <rect transform="rotate(-12.4219, 127.5, 167)" id="svg_38" height="19" width="14" y="157.5" x="120.5" fill-opacity="null" stroke-opacity="null" stroke-width="0" stroke="null" fill="#3f7f00"/>
  <rect transform="rotate(88.9269, 60.5, 174)" id="svg_40" height="19" width="14" y="164.5" x="53.5" fill-opacity="null" stroke-opacity="null" stroke-width="0" stroke="null" fill="#3f7f00"/>
  <ellipse transform="rotate(20.3303, 83.5, 84)" ry="5.5" rx="23" id="svg_41" cy="84" cx="83.5" stroke-opacity="null" stroke-width="0" stroke="null" fill="#7fff00"/>
  <ellipse transform="rotate(112.228, 106.327, 78.3165)" ry="5.5" rx="17.25673" id="svg_42" cy="78.31646" cx="106.32738" stroke-opacity="null" stroke-width="0" stroke="null" fill="#7fff00"/>
  <ellipse transform="rotate(-23.5415, 51.2345, 39.8335)" ry="9.79046" rx="16.45839" id="svg_44" cy="39.83351" cx="51.23449" stroke-opacity="null" stroke-width="0" stroke="null" fill="#3f7f00"/>
  <rect transform="rotate(-24.6332, 53.9103, 45.3948)" id="svg_45" height="10" width="33.81799" y="40.39479" x="37.0013" fill-opacity="null" stroke-opacity="null" stroke-width="0" stroke="null" fill="#3f7f00"/>
 </g>
</svg>