<svg width="200" height="200" xmlns="http://www.w3.org/2000/svg">
 <!-- Created with Method Draw - http://github.com/duopixel/Method-Draw/ -->
 <g>
  <line stroke-linecap="null" stroke-linejoin="null" id="svg_20" y2="147.5" x2="58.5" y1="133.5" x1="69.5" fill-opacity="null" stroke-opacity="null" stroke-width="4.5" stroke="#7f0000" fill="none"/>
  <line stroke-linecap="null" stroke-linejoin="null" id="svg_18" y2="146.5" x2="102.5" y1="123.5" x1="97.5" stroke-width="4.5" stroke="#7f0000" fill="none"/>
  <path id="svg_17" d="m169.5,33.5l21.5,9.5l-28,1" stroke-opacity="null" stroke-width="1.5" stroke="null" fill="#bfbf00"/>
  <path id="svg_2" d="m103.15005,68.9883c-5.8781,8.62713 -16.91746,11.80555 -25.37619,17.70832l-56.77386,16.34614c12.61641,22.40027 27.81346,35.71935 55.91365,39.95723c30.96756,0 51.6126,-9.08119 64.51575,-24.51921c7.74189,-18.76779 19.78483,-42.9843 12.90315,-64.47645l-16.34399,-28.15169c-10.17915,12.56231 -20.3583,36.02205 -34.8385,43.13565z" stroke-width="1.5" fill="#ff7f00"/>
  <ellipse ry="19.5" rx="23" id="svg_3" cy="38" cx="150.5" stroke-opacity="null" stroke-width="1.5" stroke="null" fill="#bf5f00"/>
  <ellipse transform="rotate(13.2102, 48, 98)" ry="9.5" rx="35.5" id="svg_4" cy="98" cx="48" stroke-opacity="null" stroke-width="1.5" stroke="null" fill="#bf5f00"/>
  <ellipse transform="rotate(25.5348, 47, 85.5)" ry="10" rx="29.5" id="svg_5" cy="85.5" cx="47" fill-opacity="null" stroke-opacity="null" stroke-width="1.5" stroke="null" fill="#bf5f00"/>
  <ellipse transform="rotate(41.8593, 52.5, 77.5)" ry="10" rx="29" id="svg_6" cy="77.5" cx="52.5" fill-opacity="null" stroke-opacity="null" stroke-width="1.5" stroke="null" fill="#bf5f00"/>
  <ellipse transform="rotate(30.707, 122, 50.5)" ry="27" rx="5.5" id="svg_7" cy="50.5" cx="122" fill-opacity="null" stroke-opacity="null" stroke-width="1.5" stroke="null" fill="#bf5f00"/>
  <ellipse transform="rotate(23.6712, 131.5, 55.5)" ry="33.95201" rx="6.88952" id="svg_8" cy="55.5" cx="131.5" fill-opacity="null" stroke-opacity="null" stroke-width="1.5" stroke="null" fill="#bf5f00"/>
  <ellipse transform="rotate(-74.5312, 142, 65)" ry="7.5" rx="28.5" id="svg_9" cy="65" cx="142" fill-opacity="null" stroke-opacity="null" stroke-width="1.5" stroke="null" fill="#bf5f00"/>
  <ellipse transform="rotate(95.5365, 154, 70)" ry="5.5" rx="26.5" id="svg_12" cy="70" cx="154" fill-opacity="null" stroke-opacity="null" stroke-width="1.5" stroke="null" fill="#bf5f00"/>
  <ellipse ry="9" rx="31.5" id="svg_13" cy="107.5" cx="45" stroke-opacity="null" stroke-width="1.5" stroke="null" fill="#bf5f00"/>
  <ellipse transform="rotate(-24.5998, 98, 91.5)" ry="2" rx="12.5" id="svg_14" cy="91.5" cx="98" fill-opacity="null" stroke-opacity="null" stroke-width="1.5" stroke="null" fill="#bf5f00"/>
  <ellipse transform="rotate(-21.9114, 108, 100.5)" ry="3" rx="18.5" id="svg_15" cy="100.5" cx="108" fill-opacity="null" stroke-opacity="null" stroke-width="1.5" stroke="null" fill="#bf5f00"/>
  <ellipse transform="rotate(-27.289, 90.5, 120)" ry="3.5" rx="13" id="svg_16" cy="120" cx="90.5" fill-opacity="null" stroke-opacity="null" stroke-width="1.5" stroke="null" fill="#bf5f00"/>
  <line transform="rotate(0.382183, 116.5, 154)" stroke-linecap="null" stroke-linejoin="null" id="svg_19" y2="162.5" x2="132.5" y1="145.5" x1="100.5" fill-opacity="null" stroke-opacity="null" stroke-width="4.5" stroke="#7f0000" fill="none"/>
  <line transform="rotate(60.7293, 63, 160)" stroke-linecap="null" stroke-linejoin="null" id="svg_21" y2="162.5" x2="77.5" y1="157.5" x1="48.5" fill-opacity="null" stroke-opacity="null" stroke-width="4.5" stroke="#7f0000" fill="none"/>
  <line stroke-linecap="null" stroke-linejoin="null" id="svg_22" y2="177.5" x2="59.5" y1="173.5" x1="67.5" fill-opacity="null" stroke-opacity="null" stroke-width="4.5" stroke="#7f0000" fill="none"/>
  <line stroke-linecap="null" stroke-linejoin="null" id="svg_23" y2="167.5" x2="124.5" y1="161.5" x1="129.5" fill-opacity="null" stroke-opacity="null" stroke-width="4.5" stroke="#7f0000" fill="none"/>
  <line stroke-linecap="null" stroke-linejoin="null" id="svg_24" y2="182.5" x2="83.5" y1="173.5" x1="67.5" fill-opacity="null" stroke-opacity="null" stroke-width="4.5" stroke="#7f0000" fill="none"/>
  <line stroke-linecap="null" stroke-linejoin="null" id="svg_26" y2="166.5" x2="151.5" y1="161.5" x1="128.5" fill-opacity="null" stroke-opacity="null" stroke-width="4.5" stroke="#7f0000" fill="none"/>
 </g>
</svg>