<svg width="200" height="200" xmlns="http://www.w3.org/2000/svg">
 <!-- Created with Method Draw - http://github.com/duopixel/Method-Draw/ -->
 <g>
  <line stroke-linecap="null" stroke-linejoin="null" id="svg_50" y2="173.5" x2="82.5" y1="138.5" x1="100.5" stroke-width="10.5" stroke="#ffff00" fill="none"/>
  <line stroke-linecap="null" stroke-linejoin="null" id="svg_51" y2="181.5" x2="129.5" y1="147.5" x1="131.5" fill-opacity="null" stroke-opacity="null" stroke-width="10.5" stroke="#ffff00" fill="none"/>
  <ellipse transform="rotate(14.0362, 73.5, 37.5)" ry="13" rx="26" id="svg_39" cy="37.5" cx="73.5" stroke-opacity="null" stroke-width="10.5" stroke="null" fill="#b2b2b2"/>
  <ellipse transform="rotate(12.9951, 118, 125)" ry="35.71912" rx="66.9167" id="svg_40" cy="125" cx="118" stroke-opacity="null" stroke-width="10.5" stroke="null" fill="#b2b2b2"/>
  <path id="svg_41" d="m88.5,37.5c7.83333,12.83333 5.66667,22.66667 -2.5,31.5c-11.33333,8.66667 -21.66667,20.33333 -23,35" stroke-width="16.5" stroke="#b2b2b2" fill="none"/>
  <path id="svg_48" fill-opacity="null" stroke-opacity="null" stroke-width="10.5" stroke="null" fill="#ffff00"/>
  <path id="svg_49" d="m50.5,27.5l-32.5,15.62199c0.5,0.44634 40.5,1.33903 40,0.89268" fill-opacity="null" stroke-opacity="null" stroke-width="10.5" stroke="null" fill="#ffff00"/>
  <path id="svg_52" d="m83.5,163.5c-14.5,5.5 -29,8 -58.5,4.5l37,10l-27,12l54,-10l-5.5,-16.5z" stroke-width="0" fill="#ffff00"/>
  <path id="svg_53" stroke-width="0" fill="#ffff00"/>
  <path id="svg_54" d="m134.5,171.5c-14.5,5.5 -29,8 -58.5,4.5l37,10l-27,12l54,-10l-5.5,-16.5z" stroke-width="0" fill="#ffff00"/>
  <ellipse transform="rotate(13.0312, 115.5, 118.5)" ry="22" rx="46" id="svg_55" cy="118.5" cx="115.5" stroke-width="0" fill="#666666"/>
  <ellipse transform="rotate(13.0312, 113.5, 123.5)" ry="22" rx="46" id="svg_56" cy="123.5" cx="113.5" stroke-width="0" fill="#b2b2b2"/>
  <ellipse transform="rotate(13.0312, 111.5, 129.5)" ry="22" rx="46" id="svg_57" cy="129.5" cx="111.5" stroke-width="0" fill="#666666"/>
  <ellipse transform="rotate(13.0312, 112.5, 132.5)" ry="22" rx="46" id="svg_58" cy="132.5" cx="112.5" stroke-width="0" fill="#b2b2b2"/>
 </g>
</svg>